inDegrees=yes
name=ik_Shooting_orientations_forward
DataType=double
version=3
OpenSimVersion=4.3-2021-08-27-4bc7ad9
endheader
time	pelvis_tilt	pelvis_list	pelvis_rotation	pelvis_tx	pelvis_ty	pelvis_tz	hip_flexion_r	hip_adduction_r	hip_rotation_r	knee_angle_r	knee_angle_r_beta	ankle_angle_r	subtalar_angle_r	mtp_angle_r	hip_flexion_l	hip_adduction_l	hip_rotation_l	knee_angle_l	knee_angle_l_beta	ankle_angle_l	subtalar_angle_l	mtp_angle_l	lumbar_extension	lumbar_bending	lumbar_rotation	arm_flex_r	arm_add_r	arm_rot_r	elbow_flex_r	pro_sup_r	wrist_flex_r	wrist_dev_r	arm_flex_l	arm_add_l	arm_rot_l	elbow_flex_l	pro_sup_l	wrist_flex_l	wrist_dev_l
7.5	-0.8206482120027563	-1.820455029978494	148.1149295216962	0	0.9399999999999999	0	42.61138235369025	-10.2410205218597	0	58.45281029646452	1.020193996716949	-5.04441624445287	0	0	42.61138235369025	-10.2410205218597	0	58.45281029646452	1.020193996716949	-5.04441624445287	0	0	2.176895723035326	-0.3957965123530511	-3.38339115724123	0	-10.1450815335769	0	76.06890430268308	45.60604544758558	0	0	17.70659460804747	-20.33930556592324	-14.51162622466993	76.06890430268308	45.60604544758558	0	0
7.51	-0.8244973492573919	-1.81565243323529	148.1153305516821	0	0.9399999999999999	0	42.6116768684143	-10.24091740491663	0	58.45296069447345	1.020196621657393	-5.044391486298731	0	0	42.6116768684143	-10.24091740491663	0	58.45296069447345	1.020196621657393	-5.044391486298731	0	0	2.162047375400495	-0.3965156142605935	-3.396687643566504	0	-10.1453893460257	0	76.06877263468854	45.60584009724045	0	0	17.52730328660181	-20.06383277259457	-14.18937948705614	76.06877263468854	45.60584009724045	0	0
7.52	-0.8225659928120397	-1.817624147880027	148.1088423668983	0	0.9399999999999999	0	42.6120027238894	-10.24080334614298	0	58.4531270986414	1.020199525958013	-5.044364104381469	0	0	42.6120027238894	-10.24080334614298	0	58.4531270986414	1.020199525958013	-5.044364104381469	0	0	2.168901707080516	-0.3773650549572215	-3.390940779993771	0	-10.1457299310615	0	76.06862695521991	45.60561293822867	0	0	17.44089656742111	-19.89141139990319	-14.00606123091723	76.06862695521991	45.60561293822867	0	0
7.53	-0.8263996593940478	-1.81640168154712	148.1071223208766	0	0.9399999999999999	0	42.61249768333148	-10.24062962296636	0	58.45337922338128	1.020203926364849	-5.044322381361225	0	0	42.61249768333148	-10.24062962296636	0	58.45337922338128	1.020203926364849	-5.044322381361225	0	0	2.173039754183339	-0.3736028757355055	-3.370969893108647	0	-10.14624636589121	0	76.06840567569814	45.60526709989998	0	0	17.54386055920718	-20.14277151821631	-13.84489625968373	76.06840567569814	45.60526709989998	0	0
7.54	-0.8275165772936871	-1.805956200417865	148.0972250386211	0	0.9399999999999999	0	42.61287447636131	-10.24049758973235	0	58.45357134512555	1.020207279521852	-5.044290684327774	0	0	42.61287447636131	-10.24049758973235	0	58.45357134512555	1.020207279521852	-5.044290684327774	0	0	2.171741827205217	-0.3547673897722512	-3.366044443556474	0	-10.14663980806535	0	76.06823722401033	45.60500416620275	0	0	17.39141510232992	-20.3834555174966	-13.48641962250314	76.06823722401033	45.60500416620275	0	0
7.55	-0.8378396560487955	-1.821867371903034	148.0875100992958	0	0.9399999999999999	0	42.61346930170645	-10.24028862483801	0	58.4538739436908	1.020212560863127	-5.044240498040828	0	0	42.61346930170645	-10.24028862483801	0	58.4538739436908	1.020212560863127	-5.044240498040828	0	0	2.167847940480108	-0.3916196994721892	-3.341635889139906	0	-10.14725993988912	0	76.06797129824123	45.60458819883687	0	0	17.4114970643936	-20.97775823035767	-13.59741825935231	76.06797129824123	45.60458819883687	0	0
7.56	-0.827011502401296	-1.815647219197339	148.070546449774	0	0.9399999999999999	0	42.61389274360422	-10.24014032754519	0	58.454089783471	1.020216327977948	-5.044204909110758	0	0	42.61389274360422	-10.24014032754519	0	58.454089783471	1.020216327977948	-5.044204909110758	0	0	2.165341660693688	-0.365482233987971	-3.307149458926733	0	-10.14770205544194	0	76.067781991328	45.60429281134172	0	0	17.36019789337972	-21.89283379980882	-13.7956371667078	76.067781991328	45.60429281134172	0	0
7.57	-0.8507475862077587	-1.845545869156087	148.0808983150617	0	0.9399999999999999	0	42.61447668187864	-10.23993544311039	0	58.45438690991176	1.020221513812634	-5.04415572710592	0	0	42.61447668187864	-10.23993544311039	0	58.45438690991176	1.020221513812634	-5.04415572710592	0	0	2.177953160301692	-0.4175924878202746	-3.319021556933784	0	-10.14831102067771	0	76.06752093246197	45.60388482531875	0	0	17.37177981862764	-23.04875846709504	-14.02604373003065	76.06752093246197	45.60388482531875	0	0
